M48
; DRILL file {KiCad (6.0.0)} date Mon Feb 28 19:18:58 2022
; FORMAT={-:-/ absolute / inch / decimal}
; #@! TF.CreationDate,2022-02-28T19:18:58-05:00
; #@! TF.GenerationSoftware,Kicad,Pcbnew,(6.0.0)
; #@! TF.FileFunction,Plated,1,2,PTH
FMAT,2
INCH
; #@! TA.AperFunction,Plated,PTH,ComponentDrill
T1C0.0079
; #@! TA.AperFunction,Plated,PTH,ComponentDrill
T2C0.0118
; #@! TA.AperFunction,Plated,PTH,ViaDrill
T3C0.0157
; #@! TA.AperFunction,Plated,PTH,ComponentDrill
T4C0.0197
; #@! TA.AperFunction,Plated,PTH,ComponentDrill
T5C0.0217
; #@! TA.AperFunction,Plated,PTH,ComponentDrill
T6C0.0315
; #@! TA.AperFunction,Plated,PTH,ComponentDrill
T7C0.0374
; #@! TA.AperFunction,Plated,PTH,ComponentDrill
T8C0.0394
; #@! TA.AperFunction,Plated,PTH,ComponentDrill
T9C0.0598
; #@! TA.AperFunction,Plated,PTH,ComponentDrill
T10C0.1260
%
G90
G05
T1
X1.322Y-1.6256
X1.322Y-1.665
X1.322Y-1.7044
X1.3614Y-1.6256
X1.3614Y-1.665
X1.3614Y-1.7044
X1.4008Y-1.6256
X1.4008Y-1.665
X1.4008Y-1.7044
X2.0543Y-1.6237
X2.0543Y-1.663
X2.0543Y-1.7024
X2.0937Y-1.6237
X2.0937Y-1.663
X2.0937Y-1.7024
X2.1331Y-1.6237
X2.1331Y-1.663
X2.1331Y-1.7024
X2.9173Y-1.6299
X2.9173Y-1.6693
X2.9173Y-1.7087
X2.9567Y-1.6299
X2.9567Y-1.6693
X2.9567Y-1.7087
X2.9961Y-1.6299
X2.9961Y-1.6693
X2.9961Y-1.7087
X3.6772Y-1.6292
X3.6772Y-1.6686
X3.6772Y-1.7079
X3.7165Y-1.6292
X3.7165Y-1.6686
X3.7165Y-1.7079
X3.7559Y-1.6292
X3.7559Y-1.6686
X3.7559Y-1.7079
X4.4429Y-1.6321
X4.4429Y-1.6715
X4.4429Y-1.7109
X4.4823Y-1.6321
X4.4823Y-1.6715
X4.4823Y-1.7109
X4.5217Y-1.6321
X4.5217Y-1.6715
X4.5217Y-1.7109
X5.1496Y-1.6247
X5.1496Y-1.6641
X5.1496Y-1.7034
X5.189Y-1.6247
X5.189Y-1.6641
X5.189Y-1.7034
X5.2283Y-1.6247
X5.2283Y-1.6641
X5.2283Y-1.7034
T2
X1.8278Y-2.4528
X1.8278Y-2.4961
X1.8278Y-2.5472
X1.8278Y-2.5945
X1.875Y-2.4528
X1.875Y-2.4961
X1.875Y-2.5472
X1.875Y-2.5945
T3
X1.1299Y-2.0571
X1.135Y-1.7182
X1.1437Y-2.1752
X1.1437Y-2.2264
X1.1545Y-2.7264
X1.1555Y-2.7825
X1.1646Y-1.541
X1.1949Y-2.0571
X1.2126Y-2.9528
X1.2133Y-2.8957
X1.2195Y-2.7264
X1.2205Y-2.7825
X1.2579Y-2.0571
X1.2728Y-1.4721
X1.2768Y-1.2497
X1.2825Y-2.7264
X1.2835Y-2.7825
X1.29Y-2.9528
X1.2907Y-2.8957
X1.3307Y-2.0571
X1.3553Y-2.7264
X1.3563Y-2.7825
X1.3675Y-2.9528
X1.3681Y-2.8957
X1.3701Y-2.1713
X1.3701Y-2.2224
X1.374Y-2.3504
X1.374Y-2.4016
X1.4026Y-2.0571
X1.4272Y-2.7264
X1.4281Y-2.7825
X1.4449Y-2.9528
X1.4455Y-2.8957
X1.4461Y-1.2477
X1.452Y-1.4721
X1.4606Y-2.1083
X1.5071Y-1.9052
X1.5079Y-1.7756
X1.5157Y-2.1703
X1.5167Y-2.2264
X1.5268Y-1.6119
X1.5336Y-1.6703
X1.5768Y-2.9646
X1.5807Y-2.1703
X1.5817Y-2.2264
X1.6437Y-2.1703
X1.6447Y-2.2264
X1.685Y-1.1555
X1.685Y-1.2106
X1.685Y-1.2657
X1.685Y-1.9114
X1.7165Y-2.1703
X1.7175Y-2.2264
X1.7303Y-3.1555
X1.7421Y-1.1555
X1.7421Y-1.2106
X1.7421Y-1.2657
X1.7512Y-1.9032
X1.8346Y-1.9094
X1.8504Y-2.8917
X1.8504Y-2.9508
X1.8642Y-1.7933
X1.8654Y-1.7221
X1.8811Y-1.541
X1.9186Y-2.8917
X1.9186Y-2.9508
X1.9869Y-2.8917
X1.9869Y-2.9508
X2.0031Y-1.4701
X2.0071Y-1.2457
X2.0335Y-2.3169
X2.0551Y-2.8917
X2.0551Y-2.9508
X2.1823Y-1.2457
X2.1823Y-1.4701
X2.1988Y-2.9665
X2.2295Y-1.9071
X2.2362Y-1.7815
X2.2461Y-1.6024
X2.2874Y-1.6594
X2.3209Y-2.3937
X2.3445Y-2.3465
X2.4016Y-2.2126
X2.4154Y-1.9075
X2.4488Y-2.8602
X2.4528Y-3.3091
X2.4795Y-1.8993
X2.4921Y-2.6496
X2.4921Y-2.7008
X2.5531Y-2.6496
X2.5531Y-2.7008
X2.561Y-1.9075
X2.6142Y-2.6496
X2.6142Y-2.7008
X2.6772Y-2.6496
X2.6772Y-2.7008
X2.6969Y-3.311
X2.7028Y-2.2431
X2.7028Y-2.2963
X2.7244Y-1.7279
X2.7244Y-1.8051
X2.7382Y-2.6496
X2.7382Y-2.7008
X2.7539Y-1.5472
X2.7598Y-2.998
X2.7677Y-2.9232
X2.7677Y-3.0728
X2.8701Y-1.4759
X2.876Y-1.2485
X2.9291Y-2.247
X2.9311Y-2.4213
X2.935Y-3.311
X3.0157Y-3.1555
X3.0295Y-2.248
X3.0295Y-2.4173
X3.0394Y-1.2495
X3.0433Y-1.4759
X3.1004Y-1.7835
X3.1024Y-1.9213
X3.1122Y-1.6063
X3.1122Y-2.4429
X3.1575Y-1.6584
X3.2559Y-2.2421
X3.2559Y-2.2992
X3.2756Y-1.9232
X3.3051Y-1.1319
X3.3051Y-1.187
X3.3051Y-1.2421
X3.3091Y-2.2421
X3.3091Y-2.2992
X3.3445Y-1.9016
X3.3622Y-1.1319
X3.3622Y-1.187
X3.3622Y-1.2421
X3.4035Y-3.2283
X3.4213Y-1.9232
X3.4744Y-2.6909
X3.4744Y-2.748
X3.4882Y-1.7256
X3.4882Y-1.8051
X3.5236Y-1.5433
X3.5276Y-2.6909
X3.5276Y-2.748
X3.5689Y-2.3661
X3.6102Y-2.7972
X3.626Y-1.4737
X3.6299Y-1.2493
X3.7559Y-3.2343
X3.8051Y-1.4737
X3.8091Y-1.2493
X3.8459Y-2.5502
X3.8543Y-2.2697
X3.8622Y-1.9154
X3.8701Y-1.7795
X3.874Y-1.6063
X3.882Y-1.6838
X3.9134Y-1.7788
X3.9272Y-2.2933
X3.9685Y-1.6634
X3.9783Y-2.7598
X3.9941Y-2.3406
X4.0093Y-2.6112
X4.0374Y-1.9252
X4.0644Y-2.4183
X4.0644Y-2.4636
X4.0669Y-1.126
X4.0669Y-1.1811
X4.0669Y-1.2362
X4.0703Y-2.6053
X4.1102Y-3.2323
X4.124Y-1.126
X4.124Y-1.1811
X4.124Y-1.2362
X4.1269Y-2.7549
X4.1732Y-1.8524
X4.1831Y-1.9232
X4.187Y-2.4882
X4.1923Y-2.6467
X4.1982Y-2.7136
X4.2238Y-2.6801
X4.2244Y-2.4823
X4.2264Y-2.4114
X4.2294Y-2.5444
X4.2317Y-2.5817
X4.2317Y-2.6211
X4.252Y-1.7303
X4.2559Y-1.8051
X4.2854Y-2.6496
X4.2953Y-1.5492
X4.2953Y-1.9665
X4.2953Y-2.4853
X4.2992Y-2.6909
X4.3151Y-2.5421
X4.3287Y-2.8622
X4.3327Y-2.4843
X4.3366Y-2.6909
X4.3592Y-2.2844
X4.3753Y-2.4837
X4.3799Y-2.6909
X4.3917Y-1.4747
X4.3957Y-2.2697
X4.3976Y-1.25
X4.3996Y-2.4193
X4.4085Y-2.4665
X4.4331Y-2.6929
X4.4429Y-2.2717
X4.4449Y-1.9646
X4.4646Y-3.2323
X4.4744Y-2.6929
X4.4832Y-2.2825
X4.499Y-2.561
X4.5186Y-2.4636
X4.5304Y-2.2844
X4.5709Y-1.2502
X4.5709Y-1.4747
X4.5925Y-2.8661
X4.6181Y-1.9193
X4.6339Y-1.7815
X4.6358Y-1.6201
X4.6499Y-1.6899
X4.6535Y-2.5275
X4.6959Y-2.7117
X4.6969Y-2.5275
X4.7165Y-3.2343
X4.7244Y-2.7402
X4.7402Y-1.6752
X4.7421Y-2.5275
X4.7461Y-2.6693
X4.7992Y-2.6683
X4.8012Y-1.1417
X4.8012Y-1.1969
X4.8012Y-1.252
X4.8661Y-1.9232
X4.9193Y-2.439
X4.9311Y-2.7185
X4.939Y-3.0177
X4.9429Y-2.9193
X4.9429Y-3.1181
X4.9626Y-1.5846
X4.9626Y-1.7224
X4.9626Y-1.7717
X4.9744Y-2.3622
X5.0Y-1.5433
X5.0787Y-1.9646
X5.0866Y-1.3819
X5.1024Y-1.4724
X5.1673Y-2.5142
X5.2175Y-1.9646
X5.2382Y-2.5531
X5.2795Y-1.4724
X5.3268Y-1.9114
X5.3299Y-1.7646
X5.3465Y-1.3583
X5.3543Y-2.3543
X5.3661Y-1.6752
X5.372Y-1.6122
X5.3937Y-1.7835
X5.4311Y-1.6693
X5.565Y-1.9173
T6
X1.6843Y-1.4492
X1.6843Y-1.5476
X2.189Y-2.2362
X2.189Y-2.3346
X2.4205Y-1.4452
X2.4205Y-1.5437
X3.2972Y-1.4451
X3.2972Y-1.5435
X4.0571Y-1.4475
X4.0571Y-1.546
X4.813Y-1.4377
X4.813Y-1.5361
X5.5295Y-1.4475
X5.5295Y-1.546
T7
X1.2138Y-1.1692
X1.3122Y-1.1692
X1.4106Y-1.1692
X1.5091Y-1.1692
X1.9421Y-1.1653
X2.0406Y-1.1653
X2.139Y-1.1653
X2.2374Y-1.1653
X2.8091Y-1.1652
X2.9075Y-1.1652
X3.0059Y-1.1652
X3.1043Y-1.1652
X3.5689Y-1.1649
X3.6673Y-1.1649
X3.7657Y-1.1649
X3.8642Y-1.1649
X4.3346Y-1.162
X4.4331Y-1.162
X4.5315Y-1.162
X4.6299Y-1.162
X5.2508Y-1.163
X5.3492Y-1.163
X5.4476Y-1.163
X5.5461Y-1.163
T8
X2.5354Y-3.4537
X2.6339Y-3.4537
X2.8996Y-3.4528
X2.998Y-3.4528
X3.2744Y-3.4498
X3.3728Y-3.4498
X3.6378Y-3.4498
X3.7362Y-3.4498
X4.002Y-3.4488
X4.1004Y-3.4488
X4.2382Y-3.2618
X4.3661Y-3.4488
X4.4646Y-3.4488
X4.6102Y-3.2598
X4.7303Y-3.4488
X4.8287Y-3.4488
X5.0909Y-2.7594
X5.0909Y-2.8594
X5.0909Y-2.9594
X5.0909Y-3.0594
X5.0909Y-3.1594
X5.0945Y-3.4488
X5.1909Y-2.7594
X5.1909Y-2.8594
X5.1909Y-2.9594
X5.1909Y-3.0594
X5.1909Y-3.1594
X5.1929Y-3.4488
X5.4311Y-2.6102
X5.4311Y-2.7102
X5.4311Y-2.8102
X5.4311Y-2.9102
X5.4311Y-3.0102
X5.4587Y-3.4488
X5.5311Y-2.6102
X5.5311Y-2.7102
X5.5311Y-2.8102
X5.5311Y-2.9102
X5.5311Y-3.0102
X5.5571Y-3.4488
T9
X1.2539Y-3.4557
X1.2559Y-2.3803
X1.2559Y-2.5803
X1.4539Y-3.4557
X1.6539Y-3.4557
X1.8539Y-3.4557
X2.0539Y-3.4557
X2.2539Y-3.4557
T10
X2.5295Y-1.2067
X3.0783Y-2.7138
X4.9764Y-1.2067
T4
G00X5.6256Y-1.998
M15
G01X5.6512Y-1.998
M16
G05
G00X5.6256Y-2.2736
M15
G01X5.6512Y-2.2736
M16
G05
T5
G00X5.5321Y-2.0433
M15
G01X5.5321Y-2.0315
M16
G05
G00X5.5321Y-2.2402
M15
G01X5.5321Y-2.2283
M16
G05
T0
M30
